<svg xmlns="http://www.w3.org/2000/svg" viewBox="0 0 880 516" width="880" height="516" role="img" aria-label="A Telegram chat: a request is sent, a single status message updates in place while tools run, it disappears, and the finished answer arrives — then a permission request is approved with yes.">
<style>
    .bg{fill:#ffffff}
    .hdr{fill:#f7f9fb}
    .line{stroke:#e6ebf0;stroke-width:1}
    .bub.bot{fill:#f1f3f5}
    .bub.user{fill:#3390ec}
    .t{fill:#0f1419;font-family:ui-sans-serif,-apple-system,BlinkMacSystemFont,'Segoe UI',Roboto,Helvetica,Arial,sans-serif;font-size:17px}
    .t.u{fill:#ffffff}
    .t.dim{fill:#6b7c8c}
    .t.small{font-size:14px}
    .t.mono{font-family:ui-monospace,SFMono-Regular,Menlo,Consolas,'Liberation Mono',monospace;font-size:15px}
    .title{fill:#0f1419;font-family:ui-sans-serif,-apple-system,BlinkMacSystemFont,'Segoe UI',Roboto,Helvetica,Arial,sans-serif;font-size:16px;font-weight:600}
    .sub{fill:#6b7c8c;font-family:ui-sans-serif,-apple-system,BlinkMacSystemFont,'Segoe UI',Roboto,Helvetica,Arial,sans-serif;font-size:13px}
    .avatar{fill:#3390ec}
    .avatar-t{fill:#ffffff;font-family:ui-sans-serif,-apple-system,BlinkMacSystemFont,'Segoe UI',Roboto,Helvetica,Arial,sans-serif;font-size:15px;font-weight:700}
    @media (prefers-color-scheme:dark){
      .bg{fill:#17212b}
      .hdr{fill:#1d2b3a}
      .line{stroke:#101a23}
      .bub.bot{fill:#182533}
      .bub.user{fill:#2b5278}
      .t{fill:#e9edf0}
      .t.dim{fill:#8fa3b5}
      .title{fill:#e9edf0}
      .sub{fill:#8fa3b5}
    }
    .s{opacity:0;animation-duration:11.5s;animation-iteration-count:infinite;
       animation-timing-function:linear}
    @media (prefers-reduced-motion:reduce){.s{animation:none;opacity:1}}
    @keyframes k-ask{0.000%{opacity:0} 3.478%{opacity:0} 6.087%{opacity:1} 100.000%{opacity:1}}#ask{animation-name:k-ask}@keyframes k-tickbub{0.000%{opacity:0} 8.696%{opacity:0} 11.304%{opacity:1} 55.652%{opacity:1} 58.261%{opacity:0} 100.000%{opacity:0}}#tickbub{animation-name:k-tickbub}@keyframes k-tick0{0.000%{opacity:0} 8.696%{opacity:0} 11.304%{opacity:1} 19.130%{opacity:1} 21.739%{opacity:0} 100.000%{opacity:0}}#tick0{animation-name:k-tick0}@keyframes k-tick1{0.000%{opacity:0} 21.739%{opacity:0} 24.348%{opacity:1} 33.043%{opacity:1} 35.652%{opacity:0} 100.000%{opacity:0}}#tick1{animation-name:k-tick1}@keyframes k-tick2{0.000%{opacity:0} 35.652%{opacity:0} 38.261%{opacity:1} 45.217%{opacity:1} 47.826%{opacity:0} 100.000%{opacity:0}}#tick2{animation-name:k-tick2}@keyframes k-tick3{0.000%{opacity:0} 47.826%{opacity:0} 50.435%{opacity:1} 55.652%{opacity:1} 58.261%{opacity:0} 100.000%{opacity:0}}#tick3{animation-name:k-tick3}@keyframes k-answer{0.000%{opacity:0} 60.870%{opacity:0} 63.478%{opacity:1} 100.000%{opacity:1}}#answer{animation-name:k-answer}@keyframes k-perm{0.000%{opacity:0} 68.696%{opacity:0} 71.304%{opacity:1} 100.000%{opacity:1}}#perm{animation-name:k-perm}@keyframes k-yes{0.000%{opacity:0} 77.391%{opacity:0} 80.000%{opacity:1} 100.000%{opacity:1}}#yes{animation-name:k-yes}@keyframes k-done{0.000%{opacity:0} 84.348%{opacity:0} 86.957%{opacity:1} 100.000%{opacity:1}}#done{animation-name:k-done}
    </style>
<rect class="bg" width="880" height="516" rx="18"/>
<path class="hdr" d="M0 18 A18 18 0 0 1 18 0 L862 0 A18 18 0 0 1 880 18 L880 62 L0 62 Z"/>
<line class="line" x1="0" y1="62" x2="880" y2="62"/>
<circle class="avatar" cx="46" cy="31" r="17"/>
<text class="avatar-t" x="46" y="37" text-anchor="middle">af</text>
<text class="title" x="76" y="27">claude-afk</text>
<text class="sub" x="76" y="46">bot · your session, on your phone</text>
<g class="s" id="ask"><path class="bub user" d="M556 98 A14 14 0 0 1 570 84 L838 84 A14 14 0 0 1 852 98 L852 130 L570 130 A14 14 0 0 1 556 116 Z"/><text class="t u" x="836" y="113" text-anchor="end">fix the failing tests</text></g><g class="s" id="tickbub"><path class="bub bot" d="M28 220 L28 156 A14 14 0 0 1 42 142 L484 142 A14 14 0 0 1 498 156 L498 206 A14 14 0 0 1 484 220 Z"/></g><g class="s" id="tick0"><text class="t" x="52" y="188" text-anchor="start">⏳ Got it, working…</text></g><g class="s" id="tick1"><text class="t" x="52" y="174" text-anchor="start">⏳ Working… · 1 step · 2s</text><text class="t mono dim" x="52" y="202" text-anchor="start">└ Bash: pytest tests/ -q</text></g><g class="s" id="tick2"><text class="t" x="52" y="174" text-anchor="start">⏳ Working… · 4 steps · 21s</text><text class="t mono dim" x="52" y="202" text-anchor="start">└ Edit: src/conftest.py</text></g><g class="s" id="tick3"><text class="t" x="52" y="174" text-anchor="start">⏳ Working… · 7 steps · 1m 12s</text><text class="t mono dim" x="52" y="202" text-anchor="start">└ Bash: pytest tests/ -q</text></g><g class="s" id="answer"><path class="bub bot" d="M28 246 L28 156 A14 14 0 0 1 42 142 L484 142 A14 14 0 0 1 498 156 L498 232 A14 14 0 0 1 484 246 Z"/><text class="t dim small" x="52" y="172" text-anchor="start">🤖 demo · turn 3/40</text><text class="t" x="52" y="202" text-anchor="start">Fixed — the fixture leaked a temp dir</text><text class="t" x="52" y="226" text-anchor="start">between runs. Suite is green.</text></g><g class="s" id="perm"><path class="bub bot" d="M28 368 L28 274 A14 14 0 0 1 42 260 L484 260 A14 14 0 0 1 498 274 L498 354 A14 14 0 0 1 484 368 Z"/><text class="t" x="52" y="290" text-anchor="start">🔐 Permission requested</text><text class="t dim small" x="52" y="318" text-anchor="start">Bash</text><text class="t mono" x="52" y="342" text-anchor="start">git push origin main</text></g><g class="s" id="yes"><path class="bub user" d="M756 396 A14 14 0 0 1 770 382 L838 382 A14 14 0 0 1 852 396 L852 428 L770 428 A14 14 0 0 1 756 414 Z"/><text class="t u" x="836" y="411" text-anchor="end">yes</text></g><g class="s" id="done"><path class="bub bot" d="M28 490 L28 452 A14 14 0 0 1 42 438 L314 438 A14 14 0 0 1 328 452 L328 476 A14 14 0 0 1 314 490 Z"/><text class="t" x="52" y="470" text-anchor="start">✅ Pushed. 1 commit to main.</text></g>
</svg>
